<mxfile host="app.diagrams.net" agent="Mozilla/5.0 (Windows NT 10.0; Win64; x64) AppleWebKit/537.36 (KHTML, like Gecko) Chrome/138.0.0.0 Safari/537.36 Edg/138.0.0.0" version="28.0.7">
  <diagram name="第 1 页" id="OcDM9iANdJN1S69kUgZ-">
    <mxGraphModel dx="1002" dy="584" grid="1" gridSize="10" guides="1" tooltips="1" connect="1" arrows="1" fold="1" page="1" pageScale="1" pageWidth="827" pageHeight="1169" math="0" shadow="0">
      <root>
        <mxCell id="0" />
        <mxCell id="1" parent="0" />
        <mxCell id="WblD24qjcXVZIYEIaCB--21" value="" style="rounded=0;whiteSpace=wrap;html=1;dashed=1;dashPattern=8 8;" vertex="1" parent="1">
          <mxGeometry x="610" y="70" width="340" height="410" as="geometry" />
        </mxCell>
        <mxCell id="WblD24qjcXVZIYEIaCB--20" value="" style="rounded=0;whiteSpace=wrap;html=1;dashed=1;dashPattern=8 8;" vertex="1" parent="1">
          <mxGeometry x="130" y="70" width="340" height="410" as="geometry" />
        </mxCell>
        <mxCell id="4_nnYnIDkYbimVNSXqPT-33" value="&lt;div&gt;&lt;br&gt;&lt;/div&gt;&lt;div&gt;&lt;br&gt;&lt;/div&gt;&lt;div&gt;&lt;br&gt;&lt;/div&gt;&lt;div&gt;&lt;br&gt;&lt;/div&gt;&lt;div&gt;&lt;br&gt;&lt;/div&gt;&lt;div&gt;&lt;br&gt;&lt;/div&gt;&lt;div&gt;mail-2&lt;/div&gt;" style="rounded=1;whiteSpace=wrap;html=1;" parent="1" vertex="1">
          <mxGeometry x="720" y="80" width="200" height="150" as="geometry" />
        </mxCell>
        <mxCell id="4_nnYnIDkYbimVNSXqPT-32" value="&lt;div&gt;&lt;br&gt;&lt;/div&gt;&lt;div&gt;&lt;br&gt;&lt;/div&gt;&lt;div&gt;&lt;br&gt;&lt;/div&gt;&lt;div&gt;&lt;br&gt;&lt;/div&gt;&lt;div&gt;&lt;br&gt;&lt;/div&gt;&lt;div&gt;&lt;br&gt;&lt;/div&gt;&lt;div&gt;mail-1&lt;/div&gt;" style="rounded=1;whiteSpace=wrap;html=1;" parent="1" vertex="1">
          <mxGeometry x="159.97" y="80" width="200" height="150" as="geometry" />
        </mxCell>
        <mxCell id="WblD24qjcXVZIYEIaCB--2" value="" style="edgeStyle=orthogonalEdgeStyle;rounded=0;orthogonalLoop=1;jettySize=auto;html=1;endArrow=none;endFill=0;" edge="1" parent="1" source="4_nnYnIDkYbimVNSXqPT-6" target="4_nnYnIDkYbimVNSXqPT-7">
          <mxGeometry relative="1" as="geometry" />
        </mxCell>
        <mxCell id="4_nnYnIDkYbimVNSXqPT-6" value="Dovecot" style="text;html=1;align=center;verticalAlign=middle;resizable=0;points=[];autosize=1;strokeColor=none;fillColor=#f5f5f5;fontColor=#333333;rounded=1;" parent="1" vertex="1">
          <mxGeometry x="172.26000000000002" y="150" width="70" height="30" as="geometry" />
        </mxCell>
        <mxCell id="4_nnYnIDkYbimVNSXqPT-7" value="&lt;div&gt;Postfix&lt;/div&gt;" style="text;html=1;align=center;verticalAlign=middle;resizable=0;points=[];autosize=1;strokeColor=none;fillColor=#f5f5f5;fontColor=#333333;rounded=1;" parent="1" vertex="1">
          <mxGeometry x="177.25999999999996" y="95" width="60" height="30" as="geometry" />
        </mxCell>
        <mxCell id="4_nnYnIDkYbimVNSXqPT-25" value="Dovecot" style="text;html=1;align=center;verticalAlign=middle;resizable=0;points=[];autosize=1;strokeColor=none;fillColor=#f5f5f5;fontColor=#333333;rounded=1;" parent="1" vertex="1">
          <mxGeometry x="835" y="150" width="70" height="30" as="geometry" />
        </mxCell>
        <mxCell id="4_nnYnIDkYbimVNSXqPT-26" style="edgeStyle=orthogonalEdgeStyle;rounded=0;orthogonalLoop=1;jettySize=auto;html=1;" parent="1" source="4_nnYnIDkYbimVNSXqPT-27" target="4_nnYnIDkYbimVNSXqPT-25" edge="1">
          <mxGeometry relative="1" as="geometry" />
        </mxCell>
        <mxCell id="4_nnYnIDkYbimVNSXqPT-27" value="&lt;div&gt;Postfix&lt;/div&gt;" style="text;html=1;align=center;verticalAlign=middle;resizable=0;points=[];autosize=1;strokeColor=none;fillColor=#f5f5f5;fontColor=#333333;rounded=1;" parent="1" vertex="1">
          <mxGeometry x="840" y="95" width="60" height="30" as="geometry" />
        </mxCell>
        <mxCell id="4_nnYnIDkYbimVNSXqPT-35" value="&lt;span style=&quot;color: rgb(51, 51, 51); text-wrap-mode: nowrap;&quot;&gt;1&lt;/span&gt;&lt;span style=&quot;color: light-dark(rgb(51, 51, 51), rgb(193, 193, 193)); text-wrap-mode: nowrap; background-color: transparent;&quot;&gt;s delay&lt;/span&gt;&lt;div&gt;&lt;div&gt;&lt;span style=&quot;color: rgb(51, 51, 51); text-wrap-mode: nowrap;&quot;&gt;&lt;br&gt;&lt;/span&gt;&lt;/div&gt;&lt;/div&gt;&lt;div&gt;&lt;span style=&quot;color: rgb(51, 51, 51); text-wrap-mode: nowrap;&quot;&gt;&lt;br&gt;&lt;/span&gt;&lt;/div&gt;" style="rounded=1;whiteSpace=wrap;html=1;" parent="1" vertex="1">
          <mxGeometry x="480" y="80" width="120" height="150" as="geometry" />
        </mxCell>
        <mxCell id="4_nnYnIDkYbimVNSXqPT-36" value="172.21.0.3" style="text;html=1;align=center;verticalAlign=middle;resizable=0;points=[];autosize=1;strokeColor=none;fillColor=none;" parent="1" vertex="1">
          <mxGeometry x="218.68" y="230" width="80" height="30" as="geometry" />
        </mxCell>
        <mxCell id="4_nnYnIDkYbimVNSXqPT-38" value="172.22.0.3" style="text;whiteSpace=wrap;" parent="1" vertex="1">
          <mxGeometry x="790" y="235" width="60" height="20" as="geometry" />
        </mxCell>
        <mxCell id="4_nnYnIDkYbimVNSXqPT-39" value="172.22.0.2" style="text;whiteSpace=wrap;" parent="1" vertex="1">
          <mxGeometry x="614" y="109" width="60" height="20" as="geometry" />
        </mxCell>
        <mxCell id="4_nnYnIDkYbimVNSXqPT-41" value="172.21.0.2" style="text;html=1;align=center;verticalAlign=middle;resizable=0;points=[];autosize=1;strokeColor=none;fillColor=none;" parent="1" vertex="1">
          <mxGeometry x="396" y="107" width="80" height="30" as="geometry" />
        </mxCell>
        <mxCell id="WblD24qjcXVZIYEIaCB--1" value="&lt;div&gt;&lt;br&gt;&lt;/div&gt;&lt;div&gt;&lt;br&gt;&lt;/div&gt;&lt;div&gt;&lt;br&gt;&lt;/div&gt;&lt;div&gt;&lt;br&gt;&lt;/div&gt;&lt;div&gt;&lt;br&gt;&lt;/div&gt;&lt;div&gt;&lt;br&gt;&lt;/div&gt;&lt;div&gt;mail-3&lt;/div&gt;" style="rounded=1;whiteSpace=wrap;html=1;" vertex="1" parent="1">
          <mxGeometry x="199.97000000000003" y="290" width="120" height="150" as="geometry" />
        </mxCell>
        <mxCell id="WblD24qjcXVZIYEIaCB--3" value="Thunderbird" style="text;html=1;align=center;verticalAlign=middle;resizable=0;points=[];autosize=1;strokeColor=none;fillColor=#f5f5f5;fontColor=#333333;rounded=1;" vertex="1" parent="1">
          <mxGeometry x="213.68" y="320" width="90" height="30" as="geometry" />
        </mxCell>
        <mxCell id="WblD24qjcXVZIYEIaCB--4" style="edgeStyle=orthogonalEdgeStyle;rounded=0;orthogonalLoop=1;jettySize=auto;html=1;entryX=0.001;entryY=0.509;entryDx=0;entryDy=0;entryPerimeter=0;" edge="1" parent="1" source="WblD24qjcXVZIYEIaCB--3" target="4_nnYnIDkYbimVNSXqPT-7">
          <mxGeometry relative="1" as="geometry">
            <Array as="points">
              <mxPoint x="149.97" y="335" />
              <mxPoint x="149.97" y="110" />
            </Array>
          </mxGeometry>
        </mxCell>
        <mxCell id="WblD24qjcXVZIYEIaCB--5" value="172.21.0.4" style="text;html=1;align=center;verticalAlign=middle;resizable=0;points=[];autosize=1;strokeColor=none;fillColor=none;" vertex="1" parent="1">
          <mxGeometry x="219.96999999999997" y="440" width="80" height="30" as="geometry" />
        </mxCell>
        <mxCell id="WblD24qjcXVZIYEIaCB--7" value="" style="endArrow=classic;html=1;rounded=0;exitX=-0.003;exitY=0.202;exitDx=0;exitDy=0;exitPerimeter=0;entryX=0.994;entryY=0.198;entryDx=0;entryDy=0;entryPerimeter=0;dashed=1;elbow=horizontal;" edge="1" parent="1" source="4_nnYnIDkYbimVNSXqPT-35" target="4_nnYnIDkYbimVNSXqPT-35">
          <mxGeometry width="50" height="50" relative="1" as="geometry">
            <mxPoint x="540" y="180" as="sourcePoint" />
            <mxPoint x="590" y="130" as="targetPoint" />
          </mxGeometry>
        </mxCell>
        <mxCell id="WblD24qjcXVZIYEIaCB--8" style="edgeStyle=orthogonalEdgeStyle;rounded=0;orthogonalLoop=1;jettySize=auto;html=1;entryX=1.008;entryY=0.572;entryDx=0;entryDy=0;entryPerimeter=0;" edge="1" parent="1" source="4_nnYnIDkYbimVNSXqPT-25" target="4_nnYnIDkYbimVNSXqPT-35">
          <mxGeometry relative="1" as="geometry" />
        </mxCell>
        <mxCell id="WblD24qjcXVZIYEIaCB--9" value="" style="endArrow=classic;html=1;rounded=0;exitX=0.993;exitY=0.57;exitDx=0;exitDy=0;exitPerimeter=0;entryX=0;entryY=0.572;entryDx=0;entryDy=0;entryPerimeter=0;dashed=1;" edge="1" parent="1" source="4_nnYnIDkYbimVNSXqPT-35" target="4_nnYnIDkYbimVNSXqPT-35">
          <mxGeometry width="50" height="50" relative="1" as="geometry">
            <mxPoint x="410" y="250" as="sourcePoint" />
            <mxPoint x="460" y="200" as="targetPoint" />
          </mxGeometry>
        </mxCell>
        <mxCell id="WblD24qjcXVZIYEIaCB--10" style="edgeStyle=orthogonalEdgeStyle;rounded=0;orthogonalLoop=1;jettySize=auto;html=1;entryX=1.002;entryY=0.526;entryDx=0;entryDy=0;entryPerimeter=0;exitX=0.005;exitY=0.566;exitDx=0;exitDy=0;exitPerimeter=0;" edge="1" parent="1" source="4_nnYnIDkYbimVNSXqPT-35" target="WblD24qjcXVZIYEIaCB--3">
          <mxGeometry relative="1" as="geometry">
            <Array as="points">
              <mxPoint x="440" y="165" />
              <mxPoint x="440" y="336" />
            </Array>
          </mxGeometry>
        </mxCell>
        <mxCell id="WblD24qjcXVZIYEIaCB--17" style="edgeStyle=orthogonalEdgeStyle;rounded=0;orthogonalLoop=1;jettySize=auto;html=1;" edge="1" parent="1" source="WblD24qjcXVZIYEIaCB--13">
          <mxGeometry relative="1" as="geometry">
            <mxPoint x="480.3575677981322" y="110" as="targetPoint" />
          </mxGeometry>
        </mxCell>
        <mxCell id="WblD24qjcXVZIYEIaCB--13" value="&lt;div&gt;BPMailSend&lt;/div&gt;" style="text;html=1;align=center;verticalAlign=middle;resizable=0;points=[];autosize=1;strokeColor=none;fillColor=#f5f5f5;fontColor=#333333;rounded=1;" vertex="1" parent="1">
          <mxGeometry x="262.97" y="95" width="90" height="30" as="geometry" />
        </mxCell>
        <mxCell id="WblD24qjcXVZIYEIaCB--18" style="edgeStyle=orthogonalEdgeStyle;rounded=0;orthogonalLoop=1;jettySize=auto;html=1;endArrow=none;endFill=0;startArrow=classic;startFill=1;" edge="1" parent="1" source="WblD24qjcXVZIYEIaCB--15">
          <mxGeometry relative="1" as="geometry">
            <mxPoint x="600" y="110.00000000000003" as="targetPoint" />
          </mxGeometry>
        </mxCell>
        <mxCell id="WblD24qjcXVZIYEIaCB--15" value="&lt;div&gt;BPMailRecv&lt;/div&gt;" style="text;html=1;align=center;verticalAlign=middle;resizable=0;points=[];autosize=1;strokeColor=none;fillColor=#f5f5f5;fontColor=#333333;rounded=1;" vertex="1" parent="1">
          <mxGeometry x="731" y="95" width="90" height="30" as="geometry" />
        </mxCell>
        <mxCell id="WblD24qjcXVZIYEIaCB--16" style="edgeStyle=orthogonalEdgeStyle;rounded=0;orthogonalLoop=1;jettySize=auto;html=1;entryX=0.005;entryY=0.5;entryDx=0;entryDy=0;entryPerimeter=0;" edge="1" parent="1" source="4_nnYnIDkYbimVNSXqPT-7" target="WblD24qjcXVZIYEIaCB--13">
          <mxGeometry relative="1" as="geometry" />
        </mxCell>
        <mxCell id="WblD24qjcXVZIYEIaCB--19" style="edgeStyle=orthogonalEdgeStyle;rounded=0;orthogonalLoop=1;jettySize=auto;html=1;entryX=0.012;entryY=0.497;entryDx=0;entryDy=0;entryPerimeter=0;" edge="1" parent="1" source="WblD24qjcXVZIYEIaCB--15" target="4_nnYnIDkYbimVNSXqPT-27">
          <mxGeometry relative="1" as="geometry" />
        </mxCell>
        <mxCell id="WblD24qjcXVZIYEIaCB--22" value="&lt;font style=&quot;font-size: 15px;&quot;&gt;Earth Internet&lt;/font&gt;" style="text;html=1;align=center;verticalAlign=middle;whiteSpace=wrap;rounded=0;" vertex="1" parent="1">
          <mxGeometry x="259.97" y="30" width="100.03" height="30" as="geometry" />
        </mxCell>
        <mxCell id="WblD24qjcXVZIYEIaCB--23" value="&lt;font style=&quot;font-size: 15px;&quot;&gt;Moon Internet&lt;/font&gt;" style="text;html=1;align=center;verticalAlign=middle;whiteSpace=wrap;rounded=0;" vertex="1" parent="1">
          <mxGeometry x="749.97" y="30" width="100.03" height="30" as="geometry" />
        </mxCell>
        <mxCell id="WblD24qjcXVZIYEIaCB--26" value="ION-DTN" style="text;html=1;align=center;verticalAlign=middle;whiteSpace=wrap;rounded=0;" vertex="1" parent="1">
          <mxGeometry x="510" y="83" width="60" height="30" as="geometry" />
        </mxCell>
        <mxCell id="WblD24qjcXVZIYEIaCB--28" value="TCP/IP" style="text;html=1;align=center;verticalAlign=middle;whiteSpace=wrap;rounded=0;" vertex="1" parent="1">
          <mxGeometry x="510" y="166" width="60" height="30" as="geometry" />
        </mxCell>
      </root>
    </mxGraphModel>
  </diagram>
</mxfile>
